<?xml version="1.0" standalone="no"?>
<!DOCTYPE svg PUBLIC "-//W3C//DTD SVG 20010904//EN"
 "http://www.w3.org/TR/2001/REC-SVG-20010904/DTD/svg10.dtd">
<svg version="1.0" xmlns="http://www.w3.org/2000/svg"
 width="512.000000pt" height="512.000000pt" viewBox="0 0 512.000000 512.000000"
 preserveAspectRatio="xMidYMid meet">

<g transform="translate(0.000000,512.000000) scale(0.100000,-0.100000)"
fill="#000000" stroke="none">
<path d="M985 4710 l-410 -410 0 -2126 0 -2126 28 -24 28 -24 1709 0 1709 0
28 24 28 24 0 2512 0 2512 -28 24 -28 24 -1327 0 -1326 0 -411 -410z m2955
-2150 l0 -2390 -1600 0 -1600 0 0 2005 0 2004 360 3 c359 3 360 3 382 26 23
22 23 23 26 382 l3 360 1214 0 1215 0 0 -2390z m-2600 2030 l0 -240 -242 0
-243 0 240 240 c132 132 241 240 242 240 2 0 3 -108 3 -240z"/>
<path d="M1722 4340 c-32 -14 -53 -66 -39 -103 20 -58 -4 -57 930 -57 611 0
863 3 887 11 56 20 72 96 28 136 -19 17 -67 18 -902 20 -523 1 -890 -2 -904
-7z"/>
<path d="M1175 3570 c-64 -25 -64 -119 0 -146 51 -21 2278 -21 2329 0 63 26
63 122 1 146 -32 12 -2300 13 -2330 0z"/>
<path d="M1172 3130 c-32 -14 -53 -66 -39 -103 19 -57 30 -58 547 -55 l468 3
26 24 c45 42 31 108 -28 131 -35 13 -941 13 -974 0z"/>
<path d="M2525 3128 c-31 -18 -44 -40 -44 -73 0 -37 17 -61 53 -75 39 -15 922
-14 966 1 41 15 62 60 48 101 -20 58 -23 58 -535 58 -333 -1 -474 -4 -488 -12z"/>
<path d="M1169 2685 c-56 -30 -53 -116 5 -143 35 -16 930 -17 972 -2 36 14 53
38 53 75 0 37 -17 61 -53 75 -18 6 -193 10 -489 10 -382 -1 -467 -3 -488 -15z"/>
<path d="M2531 2689 c-33 -13 -50 -38 -50 -74 0 -37 17 -61 53 -75 42 -15 937
-14 972 2 36 17 55 62 42 100 -20 58 -23 58 -530 57 -272 0 -473 -4 -487 -10z"/>
<path d="M1174 2246 c-61 -27 -60 -123 1 -146 17 -6 436 -10 1166 -10 1248 0
1186 -3 1207 58 14 41 -7 86 -48 101 -52 18 -2284 15 -2326 -3z"/>
<path d="M1173 1806 c-53 -24 -55 -43 -51 -539 l3 -449 28 -24 28 -24 475 0
c487 0 502 1 531 39 9 12 12 97 13 322 l0 306 -25 23 c-32 30 -78 30 -110 0
l-25 -23 0 -249 0 -248 -375 0 -375 0 0 355 0 355 421 0 c430 0 447 1 476 39
21 28 15 75 -13 102 l-26 24 -471 2 c-387 2 -478 0 -504 -11z"/>
<path d="M2540 1813 c-73 -27 -81 -115 -13 -151 28 -15 939 -17 978 -2 35 13
56 64 42 103 -19 56 -31 57 -534 56 -252 0 -465 -3 -473 -6z"/>
<path d="M2540 1373 c-73 -27 -81 -115 -13 -151 28 -15 939 -17 978 -2 35 13
56 64 42 103 -19 56 -31 57 -534 56 -252 0 -465 -3 -473 -6z"/>
<path d="M2545 933 c-84 -21 -86 -137 -2 -158 13 -4 112 -5 221 -3 194 3 198
3 217 27 21 25 25 71 9 101 -17 32 -66 40 -249 39 -97 -1 -185 -3 -196 -6z"/>
<path d="M4298 5090 c-25 -26 -29 -36 -24 -62 8 -42 22 -56 67 -70 l39 -11 0
-2387 0 -2387 -39 -11 c-45 -14 -59 -28 -67 -70 -5 -26 -1 -36 24 -62 29 -28
35 -30 111 -30 70 0 83 3 108 24 l28 24 0 2512 0 2512 -28 24 c-25 21 -38 24
-108 24 -76 0 -82 -2 -111 -30z"/>
</g>
</svg>
