<svg xmlns="http://www.w3.org/2000/svg" viewBox="0 0 550 350"><defs><style>.cls-1{fill:#4c4eff;}.cls-2{fill:#fda34e;}.cls-3,.cls-4,.cls-5,.cls-6,.cls-7{stroke:#000;stroke-miterlimit:10;}.cls-3{stroke-width:3.13px;}.cls-4{stroke-width:2.92px;}.cls-5,.cls-6,.cls-7{fill:none;stroke-linecap:round;}.cls-5{stroke-width:6.25px;stroke-dasharray:20.42 24.37 22.71 23.44;}.cls-6{stroke-width:7.19px;}.cls-7{stroke-width:6.85px;}</style></defs><g id="Слой_1" data-name="Слой 1"><path class="cls-1" d="M352.12,80.23c49.66,20.19,62.56,116,10.85,169C302.69,311,244,301,213.23,260.39c-15.55-20.5,15.33-47.07-23-85.3C164.45,149.32,238.73,34.13,352.12,80.23Z"/><path class="cls-2" d="M229.2,275c-53.42-4.38-94.46-91.95-61-158,39-77,98-85,139.52-55.5,21,14.9-.52,49.5,47.48,74.5C387.54,152.84,351.2,285,229.2,275Z"/><path class="cls-3" d="M366.17,207.5H356.5c.26.63.43,1.13.67,1.6a7.58,7.58,0,0,1,.28,7,20,20,0,0,1-3.32,5.23,9,9,0,0,1-9.83,2.59,16,16,0,0,1-10.92-19.33c1.25-4.64,3.41-8.7,7.4-11.56a12.16,12.16,0,0,1,11.86-1.67,6.26,6.26,0,0,1,1.76.91,1.54,1.54,0,0,1,.44,2.21,3,3,0,0,1-1.87.89,4.38,4.38,0,0,1-1.66-.48,8.46,8.46,0,0,0-8.64,1.77,16.19,16.19,0,0,0-5.61,12.39c-.06,4.89,3.76,9.57,8.52,10.89a5.42,5.42,0,0,0,5.17-1.09,9.62,9.62,0,0,0,3.09-5,3.65,3.65,0,0,0-1-3.68,30.91,30.91,0,0,0-3.77-2.83c-.54-.38-1.32-.5-1.73-1a2.66,2.66,0,0,1-.78-1.92c.19-.66,1-1.21,1.6-1.67.27-.2.8-.09,1.21-.07,3.17.16,6.33.29,9.49.52,1,.08,8.26.27,9.1.72a4.12,4.12,0,0,1,2.29,4.3,57.1,57.1,0,0,1-6.87,23.6c-5.84,10.94-14.12,19.79-23.8,27.39-14.84,11.65-34.74,19.48-52.7,24.89-14.43,4.36-32.31,7-47.38,7.71-1.34.07.46.25-.87.22-1.56,0-2.45-.76-2.56-1.88s.74-2.13,2.42-2.28c3.24-.27,6.5-.37,9.74-.66,25.08-2.22,52-8.82,74-21.32a105.42,105.42,0,0,0,28.69-23.16c6.74-7.93,11.86-16.73,14.06-27C365.46,213.11,365.72,210.46,366.17,207.5Z"/><path class="cls-3" d="M246.05,127.26a12.4,12.4,0,0,0-4.68,3c-.35.36-.58.95-1,1.1a2.86,2.86,0,0,1-2,.14,2.15,2.15,0,0,1-.72-1.88,5.19,5.19,0,0,1,1.56-2.47,49.1,49.1,0,0,1,5.34-3.68,2.65,2.65,0,0,0,1.61-2.5,155.41,155.41,0,0,1,3.53-29.54,4.36,4.36,0,0,1,2.92-3.62,77.34,77.34,0,0,1,21.27-5.44c6.88-.68,13.83-.61,20.75-.8a11.37,11.37,0,0,1,3.2.51c1.49.38,2.18,1.33,2,2.44s-1.16,1.67-2.7,1.6c-3.58-.17-7.15-.48-10.73-.44a101.19,101.19,0,0,0-28.85,4.39c-.24.07-.49.12-.72.2-3.17,1-3.2,1-3.79,4.37a183.17,183.17,0,0,0-2.61,23.12c0,.74,0,1.49,0,2.44a15.24,15.24,0,0,0,1.72-.44c7.43-3.07,15.3-4,23.19-4.83a4.68,4.68,0,0,1,1.24.07c.93.17,1.65.8,1.57,1.67a3,3,0,0,1-1.14,2,5.61,5.61,0,0,1-2.4.54c-7.14.81-14.25,1.73-21,4.44-.85.34-1.7.69-2.54,1.06a4.65,4.65,0,0,0-.61.41c0,4-.27,8,0,12,.58,7.24,1.3,14.47,2.36,21.64.71,4.86,2.12,9.61,3.19,14.41a12.17,12.17,0,0,1,.29,2.48,1.74,1.74,0,0,1-1.43,1.81,1.91,1.91,0,0,1-2.3-1,3.51,3.51,0,0,1-.33-.94c-1.37-6.28-3-12.51-4-18.84a173.69,173.69,0,0,1-2.16-26.18C246,129.51,246.05,128.54,246.05,127.26Z"/><path class="cls-3" d="M366.83,156.16a21,21,0,0,0-1.81-8.4c-1.74-4.06-4.44-5-8.73-2.89a9.33,9.33,0,0,0-3.92,4.42c-.27.52-.45,1.09-.76,1.58a1.65,1.65,0,0,1-2.15.77,1.89,1.89,0,0,1-1.16-2,1,1,0,0,1,.05-.24c.86-5.66,8.47-10.82,14-9.45a9.38,9.38,0,0,1,6.19,5.43,28.33,28.33,0,0,1,2.52,9.38,124,124,0,0,1,.61,22.47,14.74,14.74,0,0,1-.28,2,2,2,0,0,1-2.33,1.75c-6.51-.85-13.13-1.32-19-4.8a21.75,21.75,0,0,1-1.9-1.2,9.3,9.3,0,0,1-3.28-11.54,13.09,13.09,0,0,1,12.81-8.64,30.37,30.37,0,0,1,4.47.34C363.65,155.33,365.09,155.75,366.83,156.16Zm.38,20.2c.16-.27.33-.41.33-.55,0-4.74,0-9.49-.11-14.23,0-.45-.7-1-1.21-1.3a17.83,17.83,0,0,0-8.25-1.6c-4.23,0-7.11,2-8.92,5.69-1.54,3.12-.84,5.62,2.09,7.54C356,175.12,361.61,175.89,367.21,176.36Z"/><path class="cls-4" d="M290.63,158.34c-.16,5.37-1.56,10.18-5.56,14.17-6.31,6.28-15.37,5.48-20.18-1.74s-3.55-18,2.64-24.08a16.19,16.19,0,0,1,3-2.32,12.19,12.19,0,0,1,14.61,1.12,15.69,15.69,0,0,1,5.16,9.54C290.49,156.18,290.53,157.36,290.63,158.34Zm-4.26.69a14.58,14.58,0,0,0-2.9-9.61c-3.26-4-8.19-4.41-12.16-.9a10,10,0,0,0-2.39,2.79,25,25,0,0,0-2.42,6.17c-.84,4.36-.29,8.63,2.71,12.39s8,4.3,11.81,1a16.23,16.23,0,0,0,3.2-3.88A14.55,14.55,0,0,0,286.37,159Z"/><path d="M226.29,160C226,165,226,170.09,226,175.16c0,9.24.34,18.6,2,27.71a43.79,43.79,0,0,0,1.27,5.32,30.88,30.88,0,0,0,1.14,3c.16.37.33.74.5,1.1.09.2.26.68-.09-.22.13.35.28.7.42,1a33.26,33.26,0,0,0,3.79,7.62,16.17,16.17,0,0,0,8.4,6,13.27,13.27,0,0,0,10-.9c3.38-1.77,5.52-5.13,6.92-8.55a30.15,30.15,0,0,0,2.2-11.09c0-3.47-.6-7.34-2.57-10.28-4.32-6.5-13.33-7.65-19.72-3.47a16.21,16.21,0,0,0-4.27,4.19c.72-1-1.18,1.57-.66.87a10.34,10.34,0,0,0-.79,1.2,16.31,16.31,0,0,0-1.24,2.92c-1.06,3.35-1,7-1,10.45a3.95,3.95,0,1,0,7.89,0c0-1.32,0-2.64,0-4,0-.61.08-1.23.12-1.85.06-1.16-.1.46,0-.23.07-.42.14-.84.23-1.26a13.13,13.13,0,0,1,.53-1.72c-.31.79.15-.27.2-.36s.25-.41.37-.61c.58-1-.47.51.28-.35a10.72,10.72,0,0,0,.81-1.11c.59-.88-.51.4.27-.33.31-.29.6-.6.92-.88.5-.41-.73.4.24-.15.32-.18.63-.39,1-.56s.44-.23.67-.33c-.74.33.39-.11.45-.12.24-.08.48-.14.72-.2s1.29-.24.41-.12a13.81,13.81,0,0,1,2.13-.05c1,0-.4-.2.11,0a6.5,6.5,0,0,0,.79.18c.3.08.6.2.9.3-.76-.26-.27-.13-.09,0s.53.32.8.46c.78.44-.27-.37.06,0a6.89,6.89,0,0,0,.56.52l.42.46c-.26-.35-.3-.42-.14-.18.29.51.63,1,.89,1.52-.07-.14-.24-.72,0,0,.11.33.22.66.31,1a14.05,14.05,0,0,1,.47,4.52,17.19,17.19,0,0,1-.52,4c-.19.85-.41,1.7-.68,2.53-.08.27-.17.53-.26.79s-.19.53-.29.78c.13-.3.09-.23-.1.21a19.08,19.08,0,0,1-1,1.82c-.15.23-.31.48-.48.7.4-.52-.4.42-.4.41a8,8,0,0,1-.67.63c-.47.4.73-.36-.2.12-.3.16-.59.34-.9.49.61-.3,0,0-.31.08a8.62,8.62,0,0,1-1,.22c.8-.14.23,0,0,0s-.68,0-1,0c-1,0,.44.15-.16,0s-1.27-.31-1.9-.53c.16,0,.63.31-.09,0-.46-.23-.91-.47-1.35-.74l-.61-.4c.72.49-.13-.14-.23-.24a8.35,8.35,0,0,1-.59-.6c-.13-.14-.61-.72-.13-.1a18.91,18.91,0,0,1-1.89-3.18c-.24-.49-.46-1-.68-1.49.38.88,0-.08-.09-.23s-.19-.46-.28-.7c-.46-1.15-.93-2.31-1.46-3.44-.41-.89.32.88,0-.09-.12-.31-.23-.62-.34-.93-.25-.75-.47-1.51-.67-2.28a52.7,52.7,0,0,1-1.07-5.29c-.07-.44-.14-.87-.2-1.31-.14-.95.11.92,0,0,0-.18,0-.36-.07-.55-.12-1-.23-2-.33-3.07-.21-2.13-.36-4.26-.48-6.4-.23-4.11-.33-8.22-.35-12.34,0-5.15,0-10.32.31-15.47a4,4,0,0,0-3.94-3.94,4,4,0,0,0-4,3.94Z"/><path class="cls-5" d="M324.93,234.2S282.5,273.13,199.1,257"/><path class="cls-3" d="M327.83,147c-2.88,3-5.36,5.57-7.85,8.14-.45.47-.89,1-1.35,1.42-2.16,2.18-3.07,2.13-4.81-.31-1.6-2.27-3.17-4.56-4.76-6.84-.37-.51-.78-1-1.43-1.8-.18.86-.31,1.37-.39,1.88q-1.69,11.52-3.39,23a4.84,4.84,0,0,1-.57,2.09,2.32,2.32,0,0,1-1.78.88,2.41,2.41,0,0,1-1.46-1.35,3.81,3.81,0,0,1,0-1.93q2.13-14.55,4.28-29.09c0-.24.05-.49.1-.73.18-.95.63-1.86,1.64-1.85a3,3,0,0,1,2.06,1c1.32,1.65,2.46,3.45,3.68,5.19,1.49,2.13,3,4.26,4.61,6.55.72-.69,1.32-1.23,1.87-1.8l8.15-8.49c.34-.35.65-.73,1-1.05,1.64-1.42,3.12-1,3.64,1.06a39,39,0,0,1,.62,3.87q1.89,12.85,3.75,25.7c.3,2.06-.19,3.18-1.46,3.35s-1.95-.73-2.24-2.64c-.81-5.33-1.59-10.66-2.39-16C328.88,154,328.4,150.82,327.83,147Z"/><path class="cls-6" d="M291.73,222.45s-11.48.24-17.44,1c0,0-2.93-14.54.5-35.82"/><path class="cls-7" d="M223.92,238.27c-20.87-26.26-7-129.83-2.9-157.19a1.93,1.93,0,0,0-3.38-1.54c-8.23,9.59-25.36,29.68-28.1,34.25-3,5,1.54,7,5.85,7.93a4.35,4.35,0,0,1,2.92,6.4c-3.45,6.12-8.89,15.5-12.2,19.9-9.39,12.53,4.45,12.69,8.95,13.5a.7.7,0,0,1,.39,1.18c-3.73,4-12.77,23.68-16.5,31.11-7.31,14.57,34.55,14.12,34.55,14.12"/><path class="cls-4" d="M325.67,205.1c-.16,5.36-1.56,10.18-5.56,14.17-6.31,6.28-15.37,5.48-20.18-1.74s-3.55-17.95,2.64-24.08a15.86,15.86,0,0,1,3-2.32,12.19,12.19,0,0,1,14.61,1.12,15.69,15.69,0,0,1,5.16,9.54C325.53,202.94,325.57,204.11,325.67,205.1Zm-4.26.69a14.56,14.56,0,0,0-2.91-9.62c-3.26-4-8.18-4.4-12.16-.89a9.94,9.94,0,0,0-2.38,2.79,25,25,0,0,0-2.42,6.17c-.84,4.36-.3,8.63,2.71,12.39s8,4.3,11.8,1a15.77,15.77,0,0,0,3.2-3.88A14.56,14.56,0,0,0,321.41,205.79Z"/><path class="cls-7" d="M261.43,240.45s-27,8.1-49.8-7.36a23.85,23.85,0,0,1-10-14.93l-2.18-10.66"/></g></svg>